<svg xmlns="http://www.w3.org/2000/svg" width="1177" height="627" viewBox="0 0 1177 627" fill="none">
<style>
  .favicon {
    fill: black;
     @media (prefers-color-scheme: dark) {
      fill: white;
    }
  }
</style>
<path class="favicon" d="M412.005 626.523C434.5 626.523 454.103 614.145 464.375 595.827L704.005 251.359V565.17C703.998 565.741 703.998 566.311 704.006 566.881C704.199 599.854 730.987 626.523 764.005 626.523C786.501 626.523 806.105 614.144 816.376 595.826L1165.26 94.3056C1184.18 67.1032 1177.47 29.7108 1150.27 10.7874C1123.07 -8.13603 1085.67 -1.42458 1066.75 25.7778L824.005 374.724V60.8949C824.262 41.6427 815.265 22.6104 798.269 10.7874C771.067 -8.13602 733.674 -1.42457 714.751 25.7778L472.005 374.725L472.005 60.5235C472.005 27.3864 445.142 0.523516 412.005 0.523515C378.868 0.523514 352.005 27.3864 352.005 60.5235L352.005 374.688L109.26 25.7414C90.3362 -1.46097 52.9438 -8.17242 25.7414 10.751C8.74667 22.5734 -0.250164 41.6046 0.0052932 60.856L0.0053153 566.523C0.00531675 599.661 26.8682 626.523 60.0053 626.523C93.1424 626.523 120.005 599.661 120.005 566.523L120.005 251.322L359.533 595.643C369.776 614.061 389.435 626.523 412.005 626.523Z" />
</svg>